<?xml version="1.0" encoding="utf-8"?>
<!-- Generator: Adobe Illustrator 22.1.0, SVG Export Plug-In . SVG Version: 6.00 Build 0)  -->
<svg version="1.1" xmlns="http://www.w3.org/2000/svg" xmlns:xlink="http://www.w3.org/1999/xlink" x="0px" y="0px"
	 viewBox="0 0 736.8 453.5" style="enable-background:new 0 0 736.8 453.5;" xml:space="preserve">
<style type="text/css">
	.st0{fill:#FFFFFF;}
</style>
<g id="Logo">
	<polygon class="st0" points="425.2,226.8 481.9,226.8 481.9,170.1 425.4,170.1 	"/>
	<rect x="425.2" y="56.7" class="st0" width="56.7" height="56.7"/>
	<path class="st0" d="M282.8,55.3c-47.4,0-85.7,38.4-85.7,85.7c0,47.4,38.4,85.7,85.7,85.7h85.7V141
		C368.5,93.7,330.1,55.3,282.8,55.3z M311.3,169.6h-28.6c0,0,0,0,0,0c-15.8,0-28.6-12.8-28.6-28.6c0-15.8,12.8-28.6,28.6-28.6
		c15.8,0,28.6,12.8,28.6,28.6V169.6z"/>
	<g>
		<path class="st0" d="M84.9,319.5h-7.2c-0.7,0-1.3-0.6-1.3-1.3v-1c-2.5,1.8-5.1,2.9-9,2.9c-5.6,0-11-2.7-11-11.1v-0.6
			c0-7.6,4.8-10.9,15.9-10.9h3.5v-2.3c0-3.7-1.8-4.5-4.8-4.5c-4.1,0-8.7,0.3-10.7,0.5h-0.3c-0.6,0-1.2-0.3-1.2-1.2v-5.2
			c0-0.7,0.5-1.2,1.2-1.4c2.4-0.6,6.9-1.4,11.2-1.4c9.3,0,15.1,3.7,15.1,13.2v23C86.2,318.9,85.6,319.5,84.9,319.5z M75.9,303.7
			h-3.7c-4.5,0-5.7,1.5-5.7,4.7v0.6c0,2.7,1.4,3.2,4.1,3.2c1.9,0,3.7-0.6,5.3-1.4V303.7z"/>
		<path class="st0" d="M114.5,290.6H114c-3.2,0-5.9,1-8.3,2.3v25.2c0,0.7-0.6,1.4-1.3,1.4h-7.8c-0.7,0-1.4-0.6-1.4-1.4v-34.3
			c0-0.7,0.6-1.3,1.3-1.3h7.7c0.7,0,1.3,0.6,1.3,1.3v1.3c2.4-2,5.6-3.1,8.7-3.1c0.7,0,1.3,0.6,1.3,1.3v6.1
			C115.5,290,115.1,290.6,114.5,290.6z"/>
		<path class="st0" d="M143.1,319.6c-1.9,0.3-3.2,0.5-5.1,0.5c-7.1,0-10.8-1.9-10.8-11v-18.7l-5.2-0.8c-0.7-0.1-1.4-0.6-1.4-1.4
			v-4.3c0-0.7,0.6-1.4,1.4-1.4h5.2v-5.3c0-0.7,0.6-1.2,1.3-1.3l7.9-1.4c0.1,0,0.1,0,0.2,0c0.6,0,1.2,0.5,1.2,1.1v6.8h5.3
			c0.7,0,1.3,0.6,1.3,1.3v5.2c0,0.7-0.6,1.3-1.3,1.3h-5.3v18.8c0,2.6,0.2,3,2.1,3h3.2c0.8,0,1.4,0.4,1.4,1.1v5
			C144.3,318.9,143.8,319.4,143.1,319.6z"/>
		<path class="st0" d="M181.4,304.3h-20.6v0.1c0,3.7,1.5,7,6.6,7c4.1,0,9.8-0.3,12.4-0.6c0.1,0,0.1,0,0.2,0c0.7,0,1.2,0.3,1.2,1v4.9
			c0,1-0.3,1.5-1.4,1.7c-4.1,1-7.6,1.5-13.2,1.5c-7.8,0-16.2-4.1-16.2-16.6V299c0-10.4,6.1-17,16.3-17c10.6,0,15.9,7.2,15.9,17v3.7
			C182.7,303.7,182.2,304.3,181.4,304.3z M172.5,297.5c0-4.8-2.2-7.2-5.8-7.2c-3.5,0-5.9,2.5-5.9,7.2v0.3h11.7V297.5z"/>
		<path class="st0" d="M222.3,284l-8.1,29.3c-1.6,5.7-5.5,6.8-9.4,6.8c-3.8,0-7.7-1-9.3-6.8l-8.1-29.3c-0.1-0.1-0.1-0.3-0.1-0.4
			c0-0.6,0.5-1.1,1-1.1h8.5c0.6,0,1.2,0.6,1.4,1.4l5.5,25.3c0.2,1,0.5,1.4,1,1.4c0.5,0,0.8-0.4,1-1.4l5.5-25.3
			c0.2-0.8,0.7-1.4,1.4-1.4h8.5c0.6,0,1.1,0.5,1.1,1.1C222.3,283.7,222.3,283.9,222.3,284z"/>
		<path class="st0" d="M257.8,304.3h-20.6v0.1c0,3.7,1.5,7,6.6,7c4.1,0,9.8-0.3,12.4-0.6c0.1,0,0.1,0,0.2,0c0.7,0,1.2,0.3,1.2,1v4.9
			c0,1-0.3,1.5-1.4,1.7c-4.1,1-7.6,1.5-13.2,1.5c-7.8,0-16.2-4.1-16.2-16.6V299c0-10.4,6.1-17,16.3-17c10.6,0,15.9,7.2,15.9,17v3.7
			C259.1,303.7,258.6,304.3,257.8,304.3z M248.9,297.5c0-4.8-2.2-7.2-5.8-7.2c-3.5,0-5.9,2.5-5.9,7.2v0.3h11.7V297.5z"/>
		<path class="st0" d="M276.4,319.5h-7.9c-0.7,0-1.4-0.6-1.4-1.4v-46.8c0-0.7,0.6-1.3,1.4-1.3h7.9c0.7,0,1.2,0.6,1.2,1.3v46.8
			C277.6,318.8,277.1,319.5,276.4,319.5z"/>
		<path class="st0" d="M315.3,318.4c-3.7,0.9-8.8,1.7-13.7,1.7c-10.5,0-16.2-6.1-16.2-16.5v-5c0-10.1,5.3-16.5,16.2-16.5
			c1.3,0,3.4,0.2,5.3,0.5v-11.2c0-0.7,0.6-1.3,1.3-1.3h7.8c0.7,0,1.4,0.6,1.4,1.3v45.2C317.3,317.6,317.1,318,315.3,318.4z
			 M306.9,291c-1.5-0.2-3.7-0.3-5.3-0.3c-4.6,0-5.7,3.4-5.7,7.9v5c0,4.6,1.2,7.9,5.7,7.9c2.1,0,4.1-0.2,5.3-0.4V291z"/>
		<path class="st0" d="M356.3,304.3h-20.6v0.1c0,3.7,1.5,7,6.6,7c4.1,0,9.8-0.3,12.4-0.6c0.1,0,0.1,0,0.2,0c0.7,0,1.2,0.3,1.2,1v4.9
			c0,1-0.3,1.5-1.4,1.7c-4.1,1-7.6,1.5-13.2,1.5c-7.8,0-16.2-4.1-16.2-16.6V299c0-10.4,6.1-17,16.3-17c10.6,0,15.9,7.2,15.9,17v3.7
			C357.7,303.7,357.2,304.3,356.3,304.3z M347.5,297.5c0-4.8-2.2-7.2-5.8-7.2c-3.5,0-5.9,2.5-5.9,7.2v0.3h11.7V297.5z"/>
	</g>
	<g>
		<path class="st0" d="M395.2,319.5h-3.1c-0.7,0-1.3-0.6-1.3-1.3V297c0-6.5-2.7-8.5-6.9-8.5c-2,0-6.1,0.5-8.9,1.8v27.9
			c0,0.6-0.6,1.3-1.3,1.3h-3.2c-0.6,0-1.2-0.6-1.2-1.3v-45.9c0-0.7,0.5-1.3,1.2-1.3h3.2c0.7,0,1.2,0.6,1.2,1.3v13.3
			c3.1-1.4,7.1-2,9.9-2c6.8,0,11.6,3.9,11.6,13.4v21.2C396.5,318.9,395.9,319.5,395.2,319.5z"/>
		<path class="st0" d="M418.3,319.9c-9.5,0-14.3-6.3-14.3-15.7v-4.9c0-9.5,4.8-15.7,14.3-15.7c9.5,0,14.4,6.3,14.4,15.7v4.9
			C432.7,313.7,427.8,319.9,418.3,319.9z M427,299.3c0-6.6-2.6-10.8-8.7-10.8c-6,0-8.6,4.1-8.6,10.8v4.9c0,6.6,2.6,10.8,8.6,10.8
			c6,0,8.7-4.1,8.7-10.8V299.3z"/>
		<path class="st0" d="M468.7,288.3l-2.3,0.5c1.2,1.2,2.2,3.2,2.2,6.6v0.5c0,7.1-4.4,11-14.3,11c-3.4,0-5.6-0.5-7.5-1.3
			c-1.1,0.5-1.6,1.2-1.6,2.2c0,1.1,0.5,1.7,2,2.1l9.6,2.5c6.3,1.6,12.4,3.4,12.4,9.5v0.5c0,6.2-4.1,10-14.7,10
			c-10.2,0-14.8-3.9-14.8-10.3v-0.6c0-3.6,1.9-6.6,4.1-8.2l-0.5-0.2c-2.1-0.9-3-3-3-5v-0.1c0-1.7,0.8-3.6,2.6-4.6
			c-2-1.9-3-4.2-3-7.5v-0.5c0-5.7,3.2-11.4,14.3-11.4h14.1c0.8,0,1.5,0.6,1.5,1.4v1.7C469.8,287.9,469.4,288.2,468.7,288.3z
			 M463.4,321.9c0-2.5-2.1-3.5-7.9-5l-7.3-1.9c-1.9,1.6-3.2,3.2-3.2,6.6v0.6c0,3.6,2.1,5.9,9.3,5.9c7.4,0,9-2.1,9-5.6V321.9z
			 M462.9,295.4c0-3.9-1.7-6.9-8.7-6.9c-7.2,0-8.7,3.3-8.7,6.9v0.5c0,2.8,1.3,6.6,8.7,6.6c7,0,8.7-2.7,8.7-6.6V295.4z"/>
		<path class="st0" d="M502.7,303.5H481v0.9c0,7.7,3,10.5,9,10.5c3.7,0,8.5-0.3,11.5-0.7c0.1,0,0.2,0,0.3,0c0.5,0,1,0.3,1,0.9v2.2
			c0,0.8-0.3,1.3-1.3,1.5c-3.7,0.7-7.2,1.1-11.6,1.1c-7.4,0-14.6-3.5-14.6-15.5v-5.8c0-9.2,5.1-15.1,14.3-15.1
			c9.4,0,14.2,5.9,14.2,15.1v3.5C503.9,303,503.4,303.5,502.7,303.5z M498.1,298.6c0-7.3-2.8-10.1-8.5-10.1c-5.5,0-8.6,3.2-8.6,10.1
			v0.6h17.1V298.6z"/>
		<path class="st0" d="M522,319.9c-2.4,0-7-0.2-10.2-1c-0.8-0.2-1.4-0.6-1.4-1.3v-2.3c0-0.6,0.5-1,1.2-1c0.1,0,0.2,0,0.3,0
			c3.1,0.4,7.8,0.7,10.1,0.7c4.2,0,6.4-1.1,6.4-4.6c0-1.9-1.2-3.2-4.8-5.4l-6.5-3.9c-3.9-2.4-6.6-5.2-6.6-9.2c0-6.7,5-8.6,11.7-8.6
			c3.6,0,7,0.3,10.1,0.8c0.8,0.1,1.2,0.6,1.2,1.3v2.1c0,0.8-0.5,1.1-1.1,1.1c-0.1,0-0.1,0-0.2,0c-2.3-0.2-6.4-0.5-10-0.5
			c-3.6,0-6,0.5-6,3.7c0,1.9,1.5,3.2,4.5,4.9l6.4,3.8c5.4,3.2,7.1,5.9,7.1,9.7C534.1,317.2,529.3,319.9,522,319.9z"/>
		<path class="st0" d="M562.4,319.2c-2.1,0.4-5,0.7-8.1,0.7c-8.8,0-13.7-6.2-13.7-15.7v-5c0-9.5,4.9-15.7,13.7-15.7
			c3,0,5.9,0.3,8.1,0.7c1,0.2,1.3,0.5,1.3,1.4v2.3c0,0.6-0.5,1-1.1,1c-0.1,0-0.2,0-0.3,0c-2.8-0.3-4.8-0.5-8-0.5
			c-5.2,0-8.1,3.4-8.1,10.7v5c0,7.2,2.8,10.7,8.1,10.7c3.2,0,5.2-0.1,8-0.5c0.1,0,0.1,0,0.3,0c0.6,0,1.1,0.3,1.1,1v2.3
			C563.6,318.6,563.4,319,562.4,319.2z"/>
		<path class="st0" d="M596.7,319.5h-3.1c-0.7,0-1.3-0.6-1.3-1.3V297c0-6.5-2.7-8.5-6.9-8.5c-2,0-6.1,0.5-8.9,1.8v27.9
			c0,0.6-0.6,1.3-1.3,1.3h-3.2c-0.6,0-1.2-0.6-1.2-1.3v-45.9c0-0.7,0.5-1.3,1.2-1.3h3.2c0.7,0,1.2,0.6,1.2,1.3v13.3
			c3.1-1.4,7.1-2,9.9-2c6.8,0,11.6,3.9,11.6,13.4v21.2C598,318.9,597.5,319.5,596.7,319.5z"/>
		<path class="st0" d="M619.2,319.9c-9.5,0-14.3-6.3-14.3-15.7v-4.9c0-9.5,4.8-15.7,14.3-15.7c9.5,0,14.4,6.3,14.4,15.7v4.9
			C633.5,313.7,628.6,319.9,619.2,319.9z M627.9,299.3c0-6.6-2.6-10.8-8.7-10.8c-6,0-8.6,4.1-8.6,10.8v4.9c0,6.6,2.6,10.8,8.6,10.8
			c6,0,8.7-4.1,8.7-10.8V299.3z"/>
		<path class="st0" d="M654.2,319.9c-9.5,0-14.3-6.3-14.3-15.7v-4.9c0-9.5,4.8-15.7,14.3-15.7c9.5,0,14.4,6.3,14.4,15.7v4.9
			C668.6,313.7,663.7,319.9,654.2,319.9z M662.9,299.3c0-6.6-2.6-10.8-8.7-10.8c-6,0-8.6,4.1-8.6,10.8v4.9c0,6.6,2.6,10.8,8.6,10.8
			c6,0,8.7-4.1,8.7-10.8V299.3z"/>
		<path class="st0" d="M679.7,319.5h-3.4c-0.6,0-1.2-0.6-1.2-1.3v-46c0-0.6,0.5-1.2,1.2-1.2h3.4c0.6,0,1.2,0.5,1.2,1.2v46
			C680.9,318.8,680.5,319.5,679.7,319.5z"/>
	</g>
</g>
<g id="woordbeeld_zonder__baseline">
	<g>
		<g>
			<path class="st0" d="M67.8,362.1c-0.9,0.2-3.3,0.4-4.8,0.4c-3.7,0-6.6-1-6.6-5.9v-15.1c0-0.3,0.3-0.6,0.6-0.6h2.8
				c0.3,0,0.6,0.3,0.6,0.6v15.1c0,1.9,0.6,2.5,2.2,2.5h5.2c0.3,0,0.6,0.3,0.6,0.6v1.8C68.3,361.9,68.2,362,67.8,362.1z"/>
			<path class="st0" d="M75.7,362.2h-2.8c-0.3,0-0.6-0.3-0.6-0.6v-20.2c0-0.3,0.3-0.5,0.6-0.5h2.8c0.3,0,0.6,0.2,0.6,0.5v20.2
				C76.3,362,76,362.2,75.7,362.2z"/>
			<path class="st0" d="M88.2,362.5c-2,0-4.8-0.2-5.6-0.3c-0.5-0.1-0.7-0.3-0.7-0.9V342c0-0.6,0.3-0.8,0.7-0.9
				c0.9-0.1,3.6-0.3,5.6-0.3c5.7,0,8.9,3.1,8.9,8.8v4.2C97.1,359.4,93.9,362.5,88.2,362.5z M93.2,349.5c0-4.3-2.2-5.4-5-5.4
				c-1.1,0-1.8,0.1-2.4,0.1V359c0.6,0,1.3,0.1,2.4,0.1c2.8,0,5-1.1,5-5.4V349.5z"/>
			<path class="st0" d="M126.3,341.6l-4.7,18c-0.7,2.7-2.7,2.9-4,2.9c-1.2,0-3.3-0.3-4-2.9l-4.7-18c0-0.1,0-0.1,0-0.1
				c0-0.3,0.2-0.5,0.5-0.5h3c0.3,0,0.5,0.2,0.5,0.5l4.1,17.2c0.1,0.3,0.2,0.5,0.5,0.5c0.3,0,0.4-0.1,0.5-0.5l4.1-17.2
				c0.1-0.3,0.3-0.5,0.5-0.5h3c0.3,0,0.5,0.2,0.5,0.5C126.3,341.5,126.3,341.5,126.3,341.6z"/>
			<path class="st0" d="M145.6,362.2h-3c-0.3,0-0.5-0.2-0.5-0.5l-1.3-5.4h-6.6l-1.3,5.4c-0.1,0.3-0.3,0.5-0.5,0.5h-3
				c-0.3,0-0.5-0.2-0.5-0.5c0,0,0-0.1,0-0.1l4.7-18c0.7-2.7,2.7-2.9,4-2.9s3.3,0.3,4,2.9l4.7,18c0,0.1,0,0.1,0,0.1
				C146.1,362,145.9,362.2,145.6,362.2z M137.9,344.5c-0.1-0.3-0.2-0.5-0.5-0.5c-0.3,0-0.4,0.1-0.5,0.5L135,353h5L137.9,344.5z"/>
			<path class="st0" d="M164.9,362.2H162c-0.7,0-1.3,0-1.7-1l-6.3-13.9c-0.1-0.2-0.2-0.2-0.3-0.2c-0.1,0-0.1,0.1-0.1,0.2v14.4
				c0,0.3-0.2,0.6-0.5,0.6h-2.4c-0.3,0-0.6-0.3-0.6-0.6v-19.6c0-0.6,0.5-1.1,1.1-1.1h3.1c0.6,0,0.9,0.2,1.3,0.9l6.6,14.7
				c0.1,0.1,0.1,0.2,0.2,0.2c0.1,0,0.1-0.1,0.1-0.3v-15.1c0-0.3,0.2-0.5,0.5-0.5h2.4c0.3,0,0.5,0.2,0.5,0.5v19.6
				C166,361.7,165.5,362.2,164.9,362.2z"/>
			<path class="st0" d="M186.3,362.5c-2,0-4.8-0.2-5.6-0.3c-0.5-0.1-0.7-0.3-0.7-0.9V342c0-0.6,0.3-0.8,0.7-0.9
				c0.9-0.1,3.6-0.3,5.6-0.3c5.7,0,8.9,3.1,8.9,8.8v4.2C195.2,359.4,192,362.5,186.3,362.5z M191.3,349.5c0-4.3-2.2-5.4-5-5.4
				c-1.1,0-1.8,0.1-2.4,0.1V359c0.6,0,1.3,0.1,2.4,0.1c2.8,0,5-1.1,5-5.4V349.5z"/>
			<path class="st0" d="M212.2,362.1c-0.9,0.1-2,0.4-5.4,0.4c-3.7,0-6.6-1-6.6-5.9v-10c0-4.9,2.9-5.9,6.6-5.9c3.4,0,4.5,0.3,5.4,0.4
				c0.4,0.1,0.6,0.2,0.6,0.6v1.8c0,0.3-0.3,0.6-0.6,0.6h-5.8c-1.7,0-2.3,0.6-2.3,2.5v3.1h7.7c0.3,0,0.6,0.3,0.6,0.6v2.1
				c0,0.3-0.3,0.6-0.6,0.6h-7.7v3.7c0,1.9,0.6,2.5,2.3,2.5h5.8c0.3,0,0.6,0.3,0.6,0.6v1.8C212.8,361.9,212.6,362,212.2,362.1z"/>
		</g>
		<g>
			<path class="st0" d="M241.6,362.2h-3c-0.3,0-0.5-0.2-0.5-0.5l-1.3-5.4h-6.5l-1.3,5.4c-0.1,0.3-0.3,0.5-0.5,0.5h-3
				c-0.3,0-0.5-0.2-0.5-0.5c0,0,0-0.1,0-0.1l4.7-18c0.7-2.7,2.7-2.9,4-2.9c1.2,0,3.3,0.3,4,2.9l4.7,18c0,0.1,0,0.1,0,0.1
				C242.1,362,241.9,362.2,241.6,362.2z M233.9,344.5c-0.1-0.3-0.2-0.5-0.5-0.5s-0.4,0.1-0.5,0.5l-2,8.5h5L233.9,344.5z"/>
		</g>
		<g>
			<path class="st0" d="M251.4,362.5c-2.1,0-3.7-0.2-5-0.5c-0.3-0.1-0.5-0.3-0.5-0.6v-2.1c0-0.3,0.3-0.5,0.5-0.5c0,0,0,0,0.1,0
				c1.1,0.1,4,0.3,5,0.3c2.5,0,3.3-0.9,3.3-2.6c0-1.1-0.5-1.7-2.4-2.8l-3.8-2.3c-2.6-1.6-3.4-3.2-3.4-5.2c0-3.1,1.8-5.4,7.1-5.4
				c1.9,0,4.5,0.3,5.5,0.5c0.3,0.1,0.5,0.3,0.5,0.5v2.1c0,0.3-0.2,0.5-0.5,0.5c0,0,0,0-0.1,0c-1.9-0.2-3.8-0.3-5.6-0.3
				c-2.1,0-3,0.7-3,2c0,0.9,0.5,1.5,2.3,2.5l3.4,1.9c3.1,1.7,4,3.6,4,5.8C258.9,359.4,257.1,362.5,251.4,362.5z"/>
			<path class="st0" d="M268.9,362.5c-2.1,0-3.7-0.2-5-0.5c-0.3-0.1-0.5-0.3-0.5-0.6v-2.1c0-0.3,0.3-0.5,0.5-0.5c0,0,0,0,0.1,0
				c1.1,0.1,4,0.3,5,0.3c2.5,0,3.3-0.9,3.3-2.6c0-1.1-0.5-1.7-2.4-2.8l-3.8-2.3c-2.6-1.6-3.4-3.2-3.4-5.2c0-3.1,1.8-5.4,7.1-5.4
				c1.9,0,4.5,0.3,5.5,0.5c0.3,0.1,0.5,0.3,0.5,0.5v2.1c0,0.3-0.2,0.5-0.5,0.5c0,0,0,0-0.1,0c-1.9-0.2-3.8-0.3-5.6-0.3
				c-2.1,0-3,0.7-3,2c0,0.9,0.5,1.5,2.3,2.5l3.4,1.9c3.1,1.7,4,3.6,4,5.8C276.4,359.4,274.6,362.5,268.9,362.5z"/>
			<path class="st0" d="M288.6,362.5c-4.7,0-8.1-2.6-8.1-8.9v-3.9c0-6.3,3.4-8.9,8.1-8.9c4.7,0,8.1,2.6,8.1,8.9v3.9
				C296.7,359.8,293.3,362.5,288.6,362.5z M292.7,349.7c0-3.8-1.3-5.5-4.1-5.5s-4.1,1.7-4.1,5.5v3.9c0,3.8,1.3,5.5,4.1,5.5
				s4.1-1.7,4.1-5.5V349.7z"/>
			<path class="st0" d="M313.7,362c-0.4,0.1-2.3,0.5-4.5,0.5c-3.4,0-8.1-1.7-8.1-8.8v-4.2c0-7.2,4.6-8.8,8.1-8.8
				c2.2,0,4.1,0.3,4.5,0.5c0.4,0.1,0.6,0.3,0.6,0.7v1.9c0,0.3-0.1,0.6-0.6,0.6c0,0,0,0-0.1,0c-1-0.1-2.9-0.2-4.4-0.2
				c-2.4,0-4.1,1.3-4.1,5.4v4.2c0,4,1.7,5.4,4.1,5.4c1.5,0,3.4-0.1,4.4-0.2c0,0,0.1,0,0.1,0c0.4,0,0.6,0.3,0.6,0.6v1.9
				C314.3,361.8,314,361.9,313.7,362z"/>
			<path class="st0" d="M322.4,362.2h-2.8c-0.3,0-0.6-0.3-0.6-0.6v-20.2c0-0.3,0.3-0.5,0.6-0.5h2.8c0.3,0,0.6,0.2,0.6,0.5v20.2
				C322.9,362,322.7,362.2,322.4,362.2z"/>
			<path class="st0" d="M343.7,362.2h-3c-0.3,0-0.5-0.2-0.5-0.5l-1.3-5.4h-6.5l-1.3,5.4c-0.1,0.3-0.3,0.5-0.5,0.5h-3
				c-0.3,0-0.5-0.2-0.5-0.5c0,0,0-0.1,0-0.1l4.7-18c0.7-2.7,2.7-2.9,4-2.9s3.3,0.3,4,2.9l4.7,18c0,0.1,0,0.1,0,0.1
				C344.2,362,344,362.2,343.7,362.2z M336,344.5c-0.1-0.3-0.2-0.5-0.5-0.5c-0.3,0-0.4,0.1-0.5,0.5L333,353h5L336,344.5z"/>
			<path class="st0" d="M361.2,344.3h-5v17.4c0,0.3-0.3,0.6-0.6,0.6h-2.8c-0.3,0-0.6-0.3-0.6-0.6v-17.4h-5c-0.3,0-0.6-0.2-0.6-0.5
				v-2.3c0-0.3,0.3-0.5,0.6-0.5h13.9c0.3,0,0.6,0.2,0.6,0.5v2.3C361.8,344.1,361.5,344.3,361.2,344.3z"/>
			<path class="st0" d="M369.3,362.2h-2.8c-0.3,0-0.6-0.3-0.6-0.6v-20.2c0-0.3,0.3-0.5,0.6-0.5h2.8c0.3,0,0.6,0.2,0.6,0.5v20.2
				C369.8,362,369.6,362.2,369.3,362.2z"/>
			<path class="st0" d="M387.4,362.1c-0.9,0.1-2,0.4-5.4,0.4c-3.7,0-6.6-1-6.6-5.9v-10c0-4.9,2.9-5.9,6.6-5.9c3.4,0,4.5,0.3,5.4,0.4
				c0.4,0.1,0.6,0.2,0.6,0.6v1.8c0,0.3-0.3,0.6-0.6,0.6h-5.8c-1.7,0-2.3,0.6-2.3,2.5v3.1h7.7c0.3,0,0.6,0.3,0.6,0.6v2.1
				c0,0.3-0.3,0.6-0.6,0.6h-7.7v3.7c0,1.9,0.6,2.5,2.3,2.5h5.8c0.3,0,0.6,0.3,0.6,0.6v1.8C387.9,361.9,387.8,362,387.4,362.1z"/>
			<path class="st0" d="M409.1,362.5c-4.6,0-7.8-2-7.8-8.1v-12.9c0-0.3,0.3-0.5,0.6-0.5h2.8c0.3,0,0.6,0.2,0.6,0.5v12.9
				c0,3.3,0.8,4.8,3.9,4.8c3.1,0,3.9-1.5,3.9-4.8v-12.9c0-0.3,0.3-0.5,0.6-0.5h2.8c0.3,0,0.6,0.2,0.6,0.5v12.9
				C417,360.5,413.7,362.5,409.1,362.5z"/>
			<path class="st0" d="M437.2,362.2h-2.9c-0.7,0-1.3,0-1.7-1l-6.3-13.9c-0.1-0.2-0.2-0.2-0.3-0.2c-0.1,0-0.1,0.1-0.1,0.2v14.4
				c0,0.3-0.2,0.6-0.5,0.6H423c-0.3,0-0.6-0.3-0.6-0.6v-19.6c0-0.6,0.5-1.1,1.1-1.1h3.1c0.6,0,0.9,0.2,1.3,0.9l6.6,14.7
				c0.1,0.1,0.1,0.2,0.2,0.2c0.1,0,0.1-0.1,0.1-0.3v-15.1c0-0.3,0.2-0.5,0.5-0.5h2.5c0.3,0,0.5,0.2,0.5,0.5v19.6
				C438.4,361.7,437.9,362.2,437.2,362.2z"/>
			<path class="st0" d="M447.3,362.2h-2.8c-0.3,0-0.6-0.3-0.6-0.6v-20.2c0-0.3,0.3-0.5,0.6-0.5h2.8c0.3,0,0.6,0.2,0.6,0.5v20.2
				C447.9,362,447.6,362.2,447.3,362.2z"/>
			<path class="st0" d="M469.3,341.6l-4.7,18c-0.7,2.7-2.7,2.9-4,2.9c-1.2,0-3.3-0.3-4-2.9l-4.7-18c0-0.1,0-0.1,0-0.1
				c0-0.3,0.2-0.5,0.5-0.5h3c0.3,0,0.5,0.2,0.5,0.5l4.1,17.2c0.1,0.3,0.2,0.5,0.5,0.5c0.3,0,0.4-0.1,0.5-0.5l4.1-17.2
				c0.1-0.3,0.3-0.5,0.5-0.5h3c0.3,0,0.5,0.2,0.5,0.5C469.3,341.5,469.3,341.5,469.3,341.6z"/>
			<path class="st0" d="M485.4,362.1c-0.9,0.1-2,0.4-5.4,0.4c-3.7,0-6.6-1-6.6-5.9v-10c0-4.9,2.9-5.9,6.6-5.9c3.4,0,4.5,0.3,5.4,0.4
				c0.4,0.1,0.6,0.2,0.6,0.6v1.8c0,0.3-0.3,0.6-0.6,0.6h-5.8c-1.7,0-2.3,0.6-2.3,2.5v3.1h7.7c0.3,0,0.6,0.3,0.6,0.6v2.1
				c0,0.3-0.3,0.6-0.6,0.6h-7.7v3.7c0,1.9,0.6,2.5,2.3,2.5h5.8c0.3,0,0.6,0.3,0.6,0.6v1.8C485.9,361.9,485.8,362,485.4,362.1z"/>
			<path class="st0" d="M506.1,362.2h-3.5c-0.3,0-0.4-0.3-0.6-0.6l-4.1-7.6h-0.4c-0.7,0-1.9-0.1-2.5-0.1v7.8c0,0.3-0.2,0.6-0.5,0.6
				h-2.8c-0.3,0-0.6-0.3-0.6-0.6V342c0-0.6,0.3-0.8,0.9-0.9c1.5-0.2,3.5-0.4,5.6-0.4c4.4,0,8.2,1.6,8.2,6.5v0.3c0,3-1.5,4.9-3.8,5.8
				l4.5,8.4c0.1,0.1,0.1,0.2,0.1,0.2C506.4,362.1,506.3,362.2,506.1,362.2z M501.8,347.2c0-2.1-1.4-3.1-4.3-3.1
				c-0.6,0-2,0.1-2.5,0.1v6.4c0.5,0,2.1,0.1,2.5,0.1c2.9,0,4.3-0.8,4.3-3.3V347.2z"/>
			<path class="st0" d="M516.2,362.5c-2.1,0-3.7-0.2-5-0.5c-0.3-0.1-0.5-0.3-0.5-0.6v-2.1c0-0.3,0.3-0.5,0.5-0.5c0,0,0,0,0.1,0
				c1.1,0.1,4,0.3,5,0.3c2.5,0,3.3-0.9,3.3-2.6c0-1.1-0.5-1.7-2.4-2.8l-3.8-2.3c-2.6-1.6-3.4-3.2-3.4-5.2c0-3.1,1.8-5.4,7.1-5.4
				c1.9,0,4.5,0.3,5.5,0.5c0.3,0.1,0.5,0.3,0.5,0.5v2.1c0,0.3-0.2,0.5-0.5,0.5c0,0,0,0-0.1,0c-1.9-0.2-3.8-0.3-5.6-0.3
				c-2.1,0-3,0.7-3,2c0,0.9,0.5,1.5,2.3,2.5l3.4,1.9c3.1,1.7,4,3.6,4,5.8C523.7,359.4,521.9,362.5,516.2,362.5z"/>
			<path class="st0" d="M531.8,362.2H529c-0.3,0-0.6-0.3-0.6-0.6v-20.2c0-0.3,0.3-0.5,0.6-0.5h2.8c0.3,0,0.6,0.2,0.6,0.5v20.2
				C532.4,362,532.1,362.2,531.8,362.2z"/>
			<path class="st0" d="M551,344.3h-5v17.4c0,0.3-0.3,0.6-0.6,0.6h-2.8c-0.3,0-0.6-0.3-0.6-0.6v-17.4h-5c-0.3,0-0.6-0.2-0.6-0.5
				v-2.3c0-0.3,0.3-0.5,0.6-0.5H551c0.3,0,0.6,0.2,0.6,0.5v2.3C551.6,344.1,551.3,344.3,551,344.3z"/>
			<path class="st0" d="M567.7,362.1c-0.9,0.1-2,0.4-5.4,0.4c-3.7,0-6.6-1-6.6-5.9v-10c0-4.9,2.9-5.9,6.6-5.9c3.4,0,4.5,0.3,5.4,0.4
				c0.4,0.1,0.6,0.2,0.6,0.6v1.8c0,0.3-0.3,0.6-0.6,0.6h-5.8c-1.7,0-2.2,0.6-2.2,2.5v3.1h7.7c0.3,0,0.6,0.3,0.6,0.6v2.1
				c0,0.3-0.3,0.6-0.6,0.6h-7.7v3.7c0,1.9,0.6,2.5,2.2,2.5h5.8c0.3,0,0.6,0.3,0.6,0.6v1.8C568.2,361.9,568.1,362,567.7,362.1z"/>
			<path class="st0" d="M576.7,362.2h-2.8c-0.3,0-0.6-0.3-0.6-0.6v-20.2c0-0.3,0.3-0.5,0.6-0.5h2.8c0.3,0,0.6,0.2,0.6,0.5v20.2
				C577.3,362,577.1,362.2,576.7,362.2z"/>
			<path class="st0" d="M595.9,344.3h-5v17.4c0,0.3-0.3,0.6-0.6,0.6h-2.8c-0.3,0-0.6-0.3-0.6-0.6v-17.4h-5c-0.3,0-0.6-0.2-0.6-0.5
				v-2.3c0-0.3,0.3-0.5,0.6-0.5h13.9c0.3,0,0.6,0.2,0.6,0.5v2.3C596.5,344.1,596.2,344.3,595.9,344.3z"/>
			<path class="st0" d="M622.2,362c-1.4,0.3-3.3,0.5-6.2,0.5c-3.1,0-7.6-2-7.6-8.8v-4.1c0-6.8,4.3-8.8,7.7-8.8
				c2.7,0,5.2,0.3,6.1,0.5c0.4,0.1,0.5,0.2,0.5,0.6v1.9c0,0.4-0.1,0.6-0.6,0.6c0,0-0.1,0-0.1,0c-1.3-0.1-3.3-0.2-6-0.2
				c-1.9,0-3.7,1.3-3.7,5.4v4.1c0,4.1,2,5.4,3.6,5.4c1,0,1.9,0,2.8-0.1v-7.3c0-0.3,0.2-0.6,0.5-0.6h2.8c0.3,0,0.6,0.3,0.6,0.6v9.6
				C622.8,361.7,622.6,361.9,622.2,362z"/>
			<path class="st0" d="M640.3,362.1c-0.9,0.1-2,0.4-5.4,0.4c-3.7,0-6.6-1-6.6-5.9v-10c0-4.9,2.9-5.9,6.6-5.9c3.4,0,4.5,0.3,5.4,0.4
				c0.4,0.1,0.6,0.2,0.6,0.6v1.8c0,0.3-0.3,0.6-0.6,0.6h-5.8c-1.7,0-2.3,0.6-2.3,2.5v3.1h7.7c0.3,0,0.6,0.3,0.6,0.6v2.1
				c0,0.3-0.3,0.6-0.6,0.6h-7.7v3.7c0,1.9,0.6,2.5,2.3,2.5h5.8c0.3,0,0.6,0.3,0.6,0.6v1.8C640.9,361.9,640.7,362,640.3,362.1z"/>
			<path class="st0" d="M660.8,362.2H658c-0.7,0-1.3,0-1.7-1l-6.3-13.9c-0.1-0.2-0.2-0.2-0.3-0.2c-0.1,0-0.1,0.1-0.1,0.2v14.4
				c0,0.3-0.2,0.6-0.5,0.6h-2.4c-0.3,0-0.6-0.3-0.6-0.6v-19.6c0-0.6,0.5-1.1,1.1-1.1h3.1c0.6,0,0.9,0.2,1.3,0.9l6.6,14.7
				c0.1,0.1,0.1,0.2,0.2,0.2c0.1,0,0.1-0.1,0.1-0.3v-15.1c0-0.3,0.2-0.5,0.5-0.5h2.5c0.3,0,0.5,0.2,0.5,0.5v19.6
				C662,361.7,661.5,362.2,660.8,362.2z"/>
			<path class="st0" d="M680.6,344.3h-5v17.4c0,0.3-0.3,0.6-0.6,0.6h-2.8c-0.3,0-0.6-0.3-0.6-0.6v-17.4h-5c-0.3,0-0.6-0.2-0.6-0.5
				v-2.3c0-0.3,0.3-0.5,0.6-0.5h13.9c0.3,0,0.6,0.2,0.6,0.5v2.3C681.2,344.1,680.9,344.3,680.6,344.3z"/>
		</g>
	</g>
</g>
</svg>
