<?xml version="1.0" encoding="utf-8"?>
<!-- Generator: Adobe Illustrator 22.0.1, SVG Export Plug-In . SVG Version: 6.00 Build 0)  -->
<svg version="1.1" id="Layer_1" xmlns="http://www.w3.org/2000/svg" xmlns:xlink="http://www.w3.org/1999/xlink" x="0px" y="0px"
	 viewBox="0 0 1289.9 1702.9" style="enable-background:new 0 0 1289.9 1702.9;" xml:space="preserve">
<style type="text/css">
	.st0{fill:#EB0045;}
</style>
<g>
	<g>
		<path class="st0" d="M160.2,1117h-42L196,925.4h33.9l75.9,191.6h-42.2l-14-37.6H174L160.2,1117z M211.3,971l-27.2,77.7h55.2
			L211.3,971z"/>
		<path class="st0" d="M324.4,974.9h32.1v18.7c6.2-12.7,17.9-22.8,39.4-23.1v34.2h-1.6c-23.8,0-36,11.1-36,35.7v76.7h-33.9V974.9z"
			/>
		<path class="st0" d="M430.1,1001h-23.6v-26.2h23.6v-49.5h33.9v49.5h24.3v26.2h-24.3v116h-33.9V1001z"/>
		<path class="st0" d="M527,1057.2c1.6,22.8,21.8,35.5,41.2,35.2c16.6,0,27.7-7.5,34.2-19.2h35c-6.7,15.8-16.8,27.7-28.7,35.7
			c-11.9,8.3-25.9,12.4-40.7,12.4c-43.8,0-75.1-35.5-75.1-75.1c0-40.4,31.6-75.9,74.6-75.9c21.2,0,39.9,8,53.1,21.8
			c17.3,17.9,23.8,40.1,21,65H527z M608,1031.3c-1.3-13.5-15.5-32.4-40.4-32.1c-25.1,0-38.9,18.1-40.1,32.1H608z"/>
		<path class="st0" d="M278.6,1347.9h-32.4v-20.5c-6.2,10.6-19.7,24.9-48.7,24.9c-43.8,0-72-34.2-72-75.6
			c0-46.1,32.9-75.4,71.5-75.4c27.2,0,42.5,14.5,47.6,22.8v-20.7v-47.1h33.9V1347.9z M159.5,1276.6c0,24.1,17.4,43.8,43.5,43.8
			c12.4,0,23.6-4.9,31.6-12.9s12.7-19.2,12.2-31.6c0-12.4-4.9-23.1-12.7-30.6c-7.8-7.8-18.6-12.4-30.8-12.4
			c-27.7,0-43.8,21.2-43.8,43.5V1276.6z"/>
		<path class="st0" d="M337.7,1288c1.6,22.8,21.8,35.5,41.2,35.2c16.6,0,27.7-7.5,34.2-19.2h35c-6.7,15.8-16.8,27.7-28.7,35.7
			c-11.9,8.3-25.9,12.4-40.7,12.4c-43.8,0-75.1-35.5-75.1-75.1c0-40.4,31.6-75.9,74.6-75.9c21.2,0,39.9,8,53.1,21.8
			c17.4,17.9,23.8,40.1,21,65H337.7z M418.7,1262.1c-1.3-13.5-15.5-32.4-40.4-32.1c-25.1,0-38.9,18.1-40.1,32.1H418.7z"/>
		<path class="st0" d="M478,1156.2H512v191.6H478V1156.2z"/>
		<path class="st0" d="M162.3,1519.1c1.3,25.9,18.6,30.8,26.9,30.8c14.8,0,26.2-11.9,26.2-25.4c0-16.3-13.7-20.5-40.4-31.1
			c-14.5-5.2-47.9-17.1-47.9-53.4c0-36.8,32.4-56.7,63.4-56.7c25.4,0,59,13.5,60.6,55.9h-38.1c-1.6-8.8-4.9-23.6-23.8-23.6
			c-12.7,0-23.6,8.8-23.6,21.8c-0.3,14.2,10.1,17.9,42.5,31.3c29.3,12.7,45.6,26.7,45.6,53.9c0,30.8-18.9,59.6-64,59.6
			c-43.5,0-66-26.2-65.8-63.2H162.3z"/>
		<path class="st0" d="M408.9,1578.7H377v-18.9c-6,11.1-18.6,23.6-44.3,23.3c-46.6-0.3-55.4-35.7-55.4-60.6v-86h33.9v77.4
			c0,21,7,37.6,31.1,37.3c24.3,0,32.6-16.1,32.6-36.3v-78.5h33.9V1578.7z"/>
		<path class="st0" d="M467.7,1518.9c1.6,22.8,21.8,35.5,41.2,35.2c16.6,0,27.7-7.5,34.2-19.2h35c-6.7,15.8-16.8,27.7-28.7,35.7
			c-11.9,8.3-25.9,12.4-40.7,12.4c-43.8,0-75.1-35.5-75.1-75.1c0-40.4,31.6-75.9,74.6-75.9c21.2,0,39.9,8,53.1,21.8
			c17.3,17.9,23.8,40.1,21,65H467.7z M548.7,1493c-1.3-13.5-15.5-32.4-40.4-32.1c-25.1,0-38.9,18.1-40.1,32.1H548.7z"/>
		<path class="st0" d="M608.1,1436.5h31.9c0,6.2,0,12.2-0.3,18.9c6.2-11.1,18.9-23.6,44.3-23.3c46.4,0.3,55.2,35.7,55.2,60.9v85.7
			h-33.9v-77.2c0-21.2-7-37.6-30.8-37.6c-24.1,0.3-32.4,16.3-32.4,36.3v78.5h-33.9V1436.5z M724.6,1403.9c-8.5,6.2-17.6,9.8-28,9.8
			c-5.7,0-14.2-2.1-22-3.9c-8-1.8-15.5-3.6-20.5-3.6c-8.5,0-14.2,2.9-19.9,6.7l-11.9-23.1c6.5-4.7,17.1-9.6,27.4-9.6
			c7.5,0,15,1.8,22,3.6c7,2.1,13.5,3.6,21,3.6c8.8,0,15-2.1,19.9-6.2L724.6,1403.9z"/>
		<path class="st0" d="M764.8,1507.2c0-36.3,26.7-74.8,76.1-74.8c49.5,0,76.1,38.6,76.1,75.1c0,36.8-26.7,75.4-76.1,75.4
			c-49.5,0-76.1-38.6-76.1-75.4V1507.2z M798.7,1507.7c0,24.9,18.9,43.3,42.2,43.3s42-18.4,42-43.5s-18.7-43.5-42-43.5
			s-42.2,18.4-42.2,43.5V1507.7z"/>
	</g>
	<g>
		<g>
			<path class="st0" d="M983.7,466.3c-133.2,0-236.6-32.1-339.7-67.8l0,0c-90.9-31.4-228.6-68.7-368.2-68.7
				c-79.5,0-165,17.8-240.8,50l-35.5,15.1V0.6h1289.4v363.3l-9.8,7.7C1199.9,433.5,1097.7,466.3,983.7,466.3z M275.8,278.8
				c146.7,0,290.2,38.9,384.8,71.5l0,0c98.7,34.3,197.8,65,323,65c97.8,0,185.4-26.4,254.3-76.6V51.6H50.5V319
				C123.5,292.6,200.7,278.8,275.8,278.8z"/>
		</g>
		<g>
			<path class="st0" d="M1288.9,1702.8H-0.4V633.7l9.5-7.7C94.6,557.6,194,522.9,304.8,522.9c115.6,0,224.3,32,334.8,67.6
				c154.2,49.3,274.8,73.3,368.7,73.3c85.9,0,168.3-17.3,244.7-51.5l35.9-16V1702.8z M50.5,1651.8h1187.4V673.6
				c-72.7,27.3-149.8,41.2-229.7,41.2c-100.6,0-222.8-24.1-384.3-75.7c-106.5-34.4-211-65.2-319.2-65.2
				c-94.8,0-180.2,28.4-254.3,84.5V1651.8z"/>
		</g>
	</g>
</g>
</svg>
