<?xml version="1.0" encoding="utf-8"?>
<!-- Generator: Adobe Illustrator 22.1.0, SVG Export Plug-In . SVG Version: 6.00 Build 0)  -->
<svg version="1.1" id="Layer_1" xmlns="http://www.w3.org/2000/svg" xmlns:xlink="http://www.w3.org/1999/xlink" x="0px" y="0px"
	 viewBox="0 0 595.3 841.9" style="enable-background:new 0 0 595.3 841.9;" xml:space="preserve">
<style type="text/css">
	.st0{fill:#FFFFFF;}
</style>
<g>
	<g>
		<path class="st0" d="M80,540.3H61.1l34.9-86.2h15.3l34.1,86.2h-19l-6.3-16.9h-34L80,540.3z M103,474.6l-12.2,34.9h24.8L103,474.6z
			"/>
		<path class="st0" d="M153.8,476.3h14.4v8.4c2.8-5.7,8-10.2,17.7-10.4v15.4h-0.7c-10.7,0-16.2,5-16.2,16.1v34.5h-15.3V476.3z"/>
		<path class="st0" d="M201.4,488.1h-10.6v-11.8h10.6v-22.2h15.3v22.2h10.9v11.8h-10.9v52.2h-15.3V488.1z"/>
		<path class="st0" d="M244.9,513.4c0.7,10.2,9.8,16,18.5,15.8c7.5,0,12.5-3.4,15.4-8.6h15.7c-3,7.1-7.6,12.5-12.9,16.1
			c-5.4,3.7-11.6,5.6-18.3,5.6c-19.7,0-33.8-16-33.8-33.8c0-18.2,14.2-34.1,33.5-34.1c9.6,0,17.9,3.6,23.9,9.8
			c7.8,8,10.7,18,9.4,29.2H244.9z M281.4,501.7c-0.6-6.1-7-14.6-18.2-14.4c-11.3,0-17.5,8.2-18.1,14.4H281.4z"/>
		<path class="st0" d="M133.2,644.1h-14.6v-9.2c-2.8,4.8-8.8,11.2-21.9,11.2c-19.7,0-32.4-15.4-32.4-34c0-20.7,14.8-33.9,32.1-33.9
			c12.2,0,19.1,6.5,21.4,10.2v-9.3v-21.2h15.3V644.1z M79.7,612c0,10.8,7.8,19.7,19.6,19.7c5.6,0,10.6-2.2,14.2-5.8
			c3.6-3.6,5.7-8.6,5.5-14.2c0-5.6-2.2-10.4-5.7-13.7c-3.5-3.5-8.4-5.6-13.9-5.6c-12.5,0-19.7,9.5-19.7,19.6V612z"/>
		<path class="st0" d="M159.8,617.2c0.7,10.2,9.8,16,18.5,15.8c7.5,0,12.5-3.4,15.4-8.6h15.7c-3,7.1-7.6,12.5-12.9,16.1
			c-5.4,3.7-11.6,5.6-18.3,5.6c-19.7,0-33.8-16-33.8-33.8c0-18.2,14.2-34.1,33.5-34.1c9.6,0,17.9,3.6,23.9,9.8
			c7.8,8,10.7,18,9.4,29.2H159.8z M196.2,605.5c-0.6-6.1-7-14.6-18.2-14.4c-11.3,0-17.5,8.2-18.1,14.4H196.2z"/>
		<path class="st0" d="M222.9,557.9h15.3v86.2h-15.3V557.9z"/>
		<path class="st0" d="M80.9,721.1c0.6,11.6,8.4,13.9,12.1,13.9c6.6,0,11.8-5.4,11.8-11.4c0-7.3-6.2-9.2-18.2-14
			c-6.5-2.3-21.5-7.7-21.5-24c0-16.5,14.6-25.5,28.5-25.5c11.4,0,26.5,6.1,27.2,25.2h-17.1c-0.7-4-2.2-10.6-10.7-10.6
			c-5.7,0-10.6,4-10.6,9.8c-0.1,6.4,4.5,8,19.1,14.1c13.2,5.7,20.5,12,20.5,24.2c0,13.9-8.5,26.8-28.8,26.8
			c-19.6,0-29.7-11.8-29.6-28.4H80.9z"/>
		<path class="st0" d="M191.8,747.8h-14.3v-8.5c-2.7,5-8.4,10.6-19.9,10.5c-21-0.1-24.9-16.1-24.9-27.2v-38.7h15.3v34.8
			c0,9.4,3.1,16.9,14,16.8c10.9,0,14.7-7.2,14.7-16.3v-35.3h15.3V747.8z"/>
		<path class="st0" d="M218.2,720.9c0.7,10.2,9.8,16,18.5,15.8c7.5,0,12.5-3.4,15.4-8.6h15.7c-3,7.1-7.6,12.5-12.9,16.1
			c-5.4,3.7-11.6,5.6-18.3,5.6c-19.7,0-33.8-16-33.8-33.8c0-18.2,14.2-34.1,33.5-34.1c9.6,0,17.9,3.6,23.9,9.8
			c7.8,8,10.7,18,9.4,29.2H218.2z M254.7,709.3c-0.6-6.1-7-14.6-18.2-14.4c-11.3,0-17.5,8.2-18.1,14.4H254.7z"/>
		<path class="st0" d="M281.4,683.9h14.3c0,2.8,0,5.5-0.1,8.5c2.8-5,8.5-10.6,19.9-10.5c20.8,0.1,24.8,16.1,24.8,27.4v38.5H325
			v-34.7c0-9.5-3.1-16.9-13.9-16.9c-10.8,0.1-14.6,7.3-14.6,16.3v35.3h-15.3V683.9z M333.8,669.2c-3.8,2.8-7.9,4.4-12.6,4.4
			c-2.6,0-6.4-0.9-9.9-1.7c-3.6-0.8-7-1.6-9.2-1.6c-3.8,0-6.4,1.3-9,3l-5.4-10.4c2.9-2.1,7.7-4.3,12.3-4.3c3.4,0,6.8,0.8,9.9,1.6
			c3.1,0.9,6.1,1.6,9.4,1.6c4,0,6.8-0.9,9-2.8L333.8,669.2z"/>
		<path class="st0" d="M351.8,715.7c0-16.3,12-33.7,34.2-33.7c22.2,0,34.2,17.4,34.2,33.8c0,16.5-12,33.9-34.2,33.9
			c-22.2,0-34.2-17.4-34.2-33.9V715.7z M367.1,715.9c0,11.2,8.5,19.4,19,19.4s18.9-8.3,18.9-19.6s-8.4-19.6-18.9-19.6
			s-19,8.3-19,19.6V715.9z"/>
	</g>
	<g>
		<g>
			<path class="st0" d="M450.3,247.7c-59.9,0-106.4-14.4-152.7-30.5l0,0c-40.9-14.1-102.8-30.9-165.6-30.9
				c-35.7,0-74.2,8-108.3,22.5l-15.9,6.8V38.3h579.7v163.3l-4.4,3.4C547.5,232.9,501.5,247.7,450.3,247.7z M132,163.4
				c66,0,130.5,17.5,173,32.2l0,0c44.4,15.4,88.9,29.2,145.2,29.2c44,0,83.4-11.9,114.3-34.4V61.2H30.7v120.2
				C63.5,169.6,98.2,163.4,132,163.4z"/>
		</g>
		<g>
			<path class="st0" d="M587.5,803.6H7.8V322.9l4.3-3.4c38.4-30.8,83.2-46.4,132.9-46.4c52,0,100.9,14.4,150.5,30.4
				c69.3,22.2,123.6,32.9,165.8,32.9c38.6,0,75.7-7.8,110-23.2l16.1-7.2V803.6z M30.7,780.7h533.9V340.9
				c-32.7,12.3-67.4,18.5-103.3,18.5c-45.3,0-100.2-10.8-172.8-34C240.6,309.9,193.7,296,145,296c-42.6,0-81,12.8-114.3,38V780.7z"
				/>
		</g>
	</g>
</g>
</svg>
